<svg width="192" height="192" viewBox="0 0 192 192" fill="none" xmlns="http://www.w3.org/2000/svg">
<rect width="192" height="192" rx="41" fill="#FC3F1D"/>
<g clip-path="url(#clip0_1346_8)">
<path d="M54.1221 154.125C52.9038 154.125 51.8517 153.682 50.9657 152.796C50.0797 151.91 49.6367 150.858 49.6367 149.64V42.3228C49.6367 41.1045 50.0797 40.0524 50.9657 39.1664C51.8517 38.2804 52.9038 37.8374 54.1221 37.8374H87.3471C88.5655 37.8374 89.6173 38.2804 90.5035 39.1664C91.3896 40.0524 91.8325 41.1045 91.8325 42.3228V120.069H137.849C139.067 120.069 140.119 120.512 141.005 121.398C141.892 122.284 142.334 123.336 142.334 124.555V149.64C142.334 150.858 141.892 151.91 141.005 152.796C140.119 153.682 139.067 154.125 137.849 154.125H54.1221Z" fill="white"/>
</g>
<defs>
<clipPath id="clip0_1346_8">
<rect x="49.5" y="37.5" width="93" height="116.625" rx="6" fill="white"/>
</clipPath>
</defs>
</svg>
