<svg width="512" height="512" viewBox="0 0 512 512" fill="none" xmlns="http://www.w3.org/2000/svg">
<rect width="512" height="512" rx="145" fill="#FC3F1D"/>
<g clip-path="url(#clip0_1346_8)">
<path d="M144.326 411C141.078 411 138.272 409.819 135.909 407.456C133.547 405.093 132.365 402.288 132.365 399.039V112.861C132.365 109.612 133.547 106.807 135.909 104.444C138.272 102.081 141.078 100.9 144.326 100.9H232.926C236.175 100.9 238.98 102.081 241.343 104.444C243.706 106.807 244.887 109.612 244.887 112.861V320.185H367.598C370.847 320.185 373.652 321.366 376.015 323.729C378.378 326.092 379.559 328.897 379.559 332.146V399.039C379.559 402.288 378.378 405.093 376.015 407.456C373.652 409.819 370.847 411 367.598 411H144.326Z" fill="white"/>
</g>
<defs>
<clipPath id="clip0_1346_8">
<rect width="248" height="311" fill="white" transform="translate(132 100)"/>
</clipPath>
</defs>
</svg>
